<svg width="20" height="20" viewBox="0 0 20 20" fill="none" xmlns="http://www.w3.org/2000/svg">
<path d="M6.60156 13.2002H9.80156M6.60156 9.2002H13.0016" stroke="#667085" stroke-opacity="0.5" stroke-width="2" stroke-linecap="round"/>
<path d="M6.20313 3.2002C4.95848 3.23753 4.21642 3.37606 3.70294 3.89002C3 4.59361 3 5.72604 3 7.99089L3 13.1957C3 15.4606 3 16.593 3.70294 17.2966C4.40589 18.0002 5.53726 18.0002 7.8 18.0002L11.8 18.0002C14.0627 18.0002 15.1941 18.0002 15.8971 17.2966C16.6 16.593 16.6 15.4606 16.6 13.1957V7.99089C16.6 5.72604 16.6 4.59361 15.8971 3.89002C15.3836 3.37606 14.6415 3.23753 13.3969 3.2002" stroke="#667085" stroke-opacity="0.5" stroke-width="2"/>
<path d="M6.19995 3.40024C6.19995 2.62705 6.82675 2.00024 7.59995 2.00024H12C12.7731 2.00024 13.4 2.62705 13.4 3.40024C13.4 4.17344 12.7731 4.80024 12 4.80024H7.59995C6.82675 4.80024 6.19995 4.17344 6.19995 3.40024Z" stroke="#667085" stroke-opacity="0.5" stroke-width="2" stroke-linejoin="round"/>
</svg>
